<svg width="183" height="47" viewBox="0 0 183 47" fill="none" xmlns="http://www.w3.org/2000/svg">
<path d="M152 27.1992C121.849 27.1992 93.0488 38.5912 69.6933 57.8764C66.937 60.1524 67.6264 64.4694 70.8871 65.9341V65.9341C72.6651 66.7327 74.7413 66.4134 76.2322 65.1579C98.8635 46.1 125.956 34.6655 152 34.6655C178.05 34.6655 205.154 46.0943 227.79 65.1538C229.278 66.4067 231.351 66.7253 233.125 65.9283V65.9283C236.38 64.4665 237.069 60.1569 234.317 57.8847C210.96 38.5945 182.156 27.1992 152 27.1992ZM56.5119 70.2115C33.0217 95.074 17.3266 128.914 15.1475 166.896C15.0128 169.245 16.9053 171.192 19.2581 171.192V171.192C21.5046 171.192 23.3407 169.411 23.4852 167.169C25.8076 131.139 42.1324 99.2381 64.8428 75.7803V75.7803C65.4413 75.1615 65.2556 74.1386 64.4703 73.786L56.5121 70.2124C56.5117 70.2122 56.5117 70.2118 56.5119 70.2115V70.2115ZM247.488 70.2115C247.488 70.2115 247.488 70.2115 247.488 70.2116L239.523 73.7892C238.75 74.1367 238.567 75.1441 239.157 75.7531V75.7531C261.87 99.205 278.195 131.107 280.516 167.169C280.66 169.411 282.496 171.192 284.743 171.192V171.192C287.095 171.192 288.988 169.245 288.853 166.896C286.674 128.914 270.979 95.0743 247.489 70.2118C247.489 70.2116 247.489 70.2115 247.488 70.2115V70.2115ZM76.0249 140.154C73.9557 140.147 71.8806 140.729 71.8438 141.975V244.255C71.8438 246.388 80.1563 246.388 80.1563 244.255V141.86C80.1563 140.754 78.0942 140.159 76.0238 140.154H76.0249ZM227.976 140.154C225.905 140.159 223.843 140.754 223.843 141.86V244.255C223.843 246.388 232.156 246.388 232.156 244.255V141.975C232.12 140.729 230.044 140.147 227.976 140.154ZM61.1563 169.989C61.1563 157.86 49.1485 148.802 42.3513 158.848C42.0556 159.285 41.7665 159.732 41.4835 160.19C36.2318 168.682 33.8438 180.792 33.8438 193.058C33.8438 205.324 36.2318 217.434 41.4835 225.925C41.7665 226.383 42.0556 226.83 42.3513 227.267C49.1489 237.313 61.1563 228.255 61.1563 216.126V169.989ZM261.649 158.848C254.851 148.803 242.844 157.86 242.844 169.989V216.126C242.844 228.255 254.852 237.313 261.649 227.267C261.944 226.83 262.233 226.383 262.516 225.925C267.768 217.433 270.156 205.324 270.156 193.058C270.156 180.792 267.768 168.682 262.516 160.19C262.233 159.733 261.944 159.285 261.649 158.848ZM19 180.792C16.7046 180.792 14.8438 182.652 14.8438 184.948V201.168C14.8438 203.463 16.7046 205.324 19 205.324V205.324C21.2954 205.324 23.1563 203.463 23.1563 201.168V184.948C23.1563 182.652 21.2954 180.792 19 180.792V180.792ZM285 180.792C282.705 180.792 280.844 182.652 280.844 184.948V201.168C280.844 203.463 282.705 205.324 285 205.324V205.324C287.295 205.324 289.156 203.463 289.156 201.168V184.948C289.156 182.652 287.295 180.792 285 180.792V180.792Z" fill="#B91E1E" stroke="#B91E1E" stroke-width="5"/>
<path d="M126.499 79.4276C133.306 71.6094 142.488 67.2656 152.011 67.2656C161.534 67.2656 170.717 71.6094 177.523 79.4276C184.029 86.9006 187.838 96.9524 188.167 107.548H170.851C169.132 107.548 167.533 108.334 166.389 109.648C165.252 110.955 164.641 112.688 164.641 114.458C164.641 116.229 165.252 117.962 166.389 119.269C167.533 120.582 169.132 121.369 170.851 121.369H188.191V129.189H170.851C169.132 129.189 167.533 129.976 166.389 131.289C165.252 132.596 164.641 134.329 164.641 136.1C164.641 137.87 165.252 139.603 166.389 140.91C167.533 142.223 169.132 143.01 170.851 143.01H188.191V150.83H170.851C169.132 150.83 167.533 151.617 166.389 152.93C165.252 154.237 164.641 155.97 164.641 157.741C164.641 159.511 165.252 161.244 166.389 162.551C167.533 163.865 169.132 164.651 170.851 164.651H188.167C187.838 175.247 184.029 185.298 177.523 192.771C170.717 200.59 161.534 204.933 152.011 204.933C142.488 204.933 133.306 200.59 126.499 192.771C119.994 185.298 116.185 175.247 115.855 164.651H133.172C134.891 164.651 136.49 163.865 137.633 162.551C138.771 161.244 139.382 159.511 139.382 157.741C139.382 155.97 138.771 154.237 137.633 152.93C136.49 151.617 134.891 150.83 133.172 150.83H115.832V143.01H133.172C134.891 143.01 136.49 142.223 137.633 140.91C138.771 139.603 139.382 137.87 139.382 136.1C139.382 134.329 138.771 132.596 137.633 131.289C136.49 129.976 134.891 129.189 133.172 129.189H115.832V121.369H133.172C134.891 121.369 136.49 120.582 137.633 119.269C138.771 117.962 139.382 116.229 139.382 114.458C139.382 112.688 138.771 110.955 137.633 109.648C136.49 108.334 134.891 107.548 133.172 107.548H115.855C116.185 96.9524 119.994 86.9006 126.499 79.4276Z" fill="#B91E1E" stroke="#B91E1E" stroke-width="3"/>
<path fill-rule="evenodd" clip-rule="evenodd" d="M147.301 249.718V222.666H156.721V249.718H147.301ZM114.332 255.128C114.332 253.693 114.828 252.317 115.712 251.302C116.595 250.288 117.793 249.718 119.042 249.718H184.981C186.23 249.718 187.428 250.288 188.311 251.302C189.194 252.317 189.691 253.693 189.691 255.128C189.691 256.563 189.194 257.939 188.311 258.953C187.428 259.968 186.23 260.538 184.981 260.538H119.042C117.793 260.538 116.595 259.968 115.712 258.953C114.828 257.939 114.332 256.563 114.332 255.128Z" fill="#B91E1E"/>
<path fill-rule="evenodd" clip-rule="evenodd" d="M97.6309 181.644C98.7939 181.124 100.089 181.155 101.232 181.732C102.374 182.308 103.271 183.381 103.725 184.717C107.439 195.686 113.902 205.145 122.295 211.896C130.688 218.647 140.636 222.387 150.88 222.644C161.123 222.901 171.204 219.663 179.846 213.34C188.488 207.017 195.303 197.892 199.431 187.119C199.68 186.468 200.039 185.88 200.486 185.388C200.933 184.897 201.46 184.511 202.037 184.253C202.614 183.995 203.229 183.871 203.848 183.886C204.467 183.902 205.077 184.057 205.643 184.343C206.21 184.63 206.722 185.041 207.15 185.555C207.578 186.069 207.914 186.674 208.138 187.337C208.362 187.999 208.471 188.706 208.457 189.417C208.444 190.128 208.309 190.829 208.059 191.479C203.183 204.214 195.128 215 184.914 222.476C174.7 229.951 162.786 233.779 150.678 233.475C138.57 233.172 126.813 228.751 116.892 220.771C106.972 212.791 99.3347 201.611 94.9462 188.644C94.4942 187.307 94.5232 185.818 95.0266 184.505C95.53 183.193 96.4668 182.163 97.6309 181.644Z" fill="#B91E1E"/>
<path d="M331 250V156.909H371.182C378.091 156.909 384.136 158.273 389.318 161C394.5 163.727 398.53 167.561 401.409 172.5C404.288 177.439 405.727 183.212 405.727 189.818C405.727 196.485 404.242 202.258 401.273 207.136C398.333 212.015 394.197 215.773 388.864 218.409C383.561 221.045 377.364 222.364 370.273 222.364H346.273V202.727H365.182C368.152 202.727 370.682 202.212 372.773 201.182C374.894 200.121 376.515 198.621 377.636 196.682C378.788 194.742 379.364 192.455 379.364 189.818C379.364 187.152 378.788 184.879 377.636 183C376.515 181.091 374.894 179.636 372.773 178.636C370.682 177.606 368.152 177.091 365.182 177.091H356.273V250H331ZM447.5 251.273C439.924 251.273 433.439 249.773 428.045 246.773C422.652 243.742 418.515 239.53 415.636 234.136C412.758 228.712 411.318 222.424 411.318 215.273C411.318 208.121 412.758 201.848 415.636 196.455C418.515 191.03 422.652 186.818 428.045 183.818C433.439 180.788 439.924 179.273 447.5 179.273C455.076 179.273 461.561 180.788 466.955 183.818C472.348 186.818 476.485 191.03 479.364 196.455C482.242 201.848 483.682 208.121 483.682 215.273C483.682 222.424 482.242 228.712 479.364 234.136C476.485 239.53 472.348 243.742 466.955 246.773C461.561 249.773 455.076 251.273 447.5 251.273ZM447.682 232.727C449.803 232.727 451.636 232.015 453.182 230.591C454.727 229.167 455.924 227.136 456.773 224.5C457.621 221.864 458.045 218.727 458.045 215.091C458.045 211.424 457.621 208.288 456.773 205.682C455.924 203.045 454.727 201.015 453.182 199.591C451.636 198.167 449.803 197.455 447.682 197.455C445.439 197.455 443.515 198.167 441.909 199.591C440.303 201.015 439.076 203.045 438.227 205.682C437.379 208.288 436.955 211.424 436.955 215.091C436.955 218.727 437.379 221.864 438.227 224.5C439.076 227.136 440.303 229.167 441.909 230.591C443.515 232.015 445.439 232.727 447.682 232.727ZM519.136 250.909C514.167 250.909 509.591 249.606 505.409 247C501.258 244.394 497.924 240.439 495.409 235.136C492.924 229.833 491.682 223.152 491.682 215.091C491.682 206.667 492.985 199.818 495.591 194.545C498.227 189.273 501.621 185.409 505.773 182.955C509.955 180.5 514.348 179.273 518.955 179.273C522.409 179.273 525.439 179.879 528.045 181.091C530.652 182.273 532.833 183.864 534.591 185.864C536.348 187.833 537.682 190 538.591 192.364H538.955V156.909H564.045V250H539.136V238.545H538.591C537.621 240.909 536.227 243.03 534.409 244.909C532.621 246.758 530.439 248.227 527.864 249.318C525.318 250.379 522.409 250.909 519.136 250.909ZM528.409 231.636C530.712 231.636 532.682 230.97 534.318 229.636C535.985 228.273 537.258 226.364 538.136 223.909C539.045 221.424 539.5 218.485 539.5 215.091C539.5 211.636 539.045 208.682 538.136 206.227C537.258 203.742 535.985 201.848 534.318 200.545C532.682 199.212 530.712 198.545 528.409 198.545C526.106 198.545 524.136 199.212 522.5 200.545C520.894 201.848 519.652 203.742 518.773 206.227C517.924 208.682 517.5 211.636 517.5 215.091C517.5 218.545 517.924 221.515 518.773 224C519.652 226.455 520.894 228.348 522.5 229.682C524.136 230.985 526.106 231.636 528.409 231.636ZM576 250V156.909H616.182C623.091 156.909 629.136 158.273 634.318 161C639.5 163.727 643.53 167.561 646.409 172.5C649.288 177.439 650.727 183.212 650.727 189.818C650.727 196.485 649.242 202.258 646.273 207.136C643.333 212.015 639.197 215.773 633.864 218.409C628.561 221.045 622.364 222.364 615.273 222.364H591.273V202.727H610.182C613.152 202.727 615.682 202.212 617.773 201.182C619.894 200.121 621.515 198.621 622.636 196.682C623.788 194.742 624.364 192.455 624.364 189.818C624.364 187.152 623.788 184.879 622.636 183C621.515 181.091 619.894 179.636 617.773 178.636C615.682 177.606 613.152 177.091 610.182 177.091H601.273V250H576ZM705.636 219.455V180.182H730.727V250H706.909V236.727H706.182C704.667 241.182 702.015 244.667 698.227 247.182C694.439 249.667 689.939 250.909 684.727 250.909C679.848 250.909 675.576 249.788 671.909 247.545C668.273 245.303 665.439 242.212 663.409 238.273C661.409 234.333 660.394 229.818 660.364 224.727V180.182H685.455V219.455C685.485 222.909 686.364 225.621 688.091 227.591C689.848 229.561 692.303 230.545 695.455 230.545C697.545 230.545 699.348 230.106 700.864 229.227C702.409 228.318 703.591 227.045 704.409 225.409C705.258 223.742 705.667 221.758 705.636 219.455ZM768.58 156.909V250H743.489V156.909H768.58ZM845.182 202.909H822.091C821.97 201.485 821.47 200.258 820.591 199.227C819.712 198.197 818.576 197.409 817.182 196.864C815.818 196.288 814.303 196 812.636 196C810.485 196 808.636 196.394 807.091 197.182C805.545 197.97 804.788 199.091 804.818 200.545C804.788 201.576 805.227 202.53 806.136 203.409C807.076 204.288 808.879 204.97 811.545 205.455L825.727 208C832.879 209.303 838.197 211.5 841.682 214.591C845.197 217.652 846.97 221.758 847 226.909C846.97 231.879 845.485 236.197 842.545 239.864C839.636 243.5 835.652 246.318 830.591 248.318C825.561 250.288 819.818 251.273 813.364 251.273C802.697 251.273 794.348 249.091 788.318 244.727C782.318 240.364 778.97 234.606 778.273 227.455H803.182C803.515 229.667 804.606 231.379 806.455 232.591C808.333 233.773 810.697 234.364 813.545 234.364C815.848 234.364 817.742 233.97 819.227 233.182C820.742 232.394 821.515 231.273 821.545 229.818C821.515 228.485 820.848 227.424 819.545 226.636C818.273 225.848 816.273 225.212 813.545 224.727L801.182 222.545C794.061 221.303 788.727 218.939 785.182 215.455C781.636 211.97 779.879 207.485 779.909 202C779.879 197.152 781.152 193.045 783.727 189.682C786.333 186.288 790.045 183.712 794.864 181.955C799.712 180.167 805.455 179.273 812.091 179.273C822.182 179.273 830.136 181.364 835.955 185.545C841.803 189.727 844.879 195.515 845.182 202.909ZM890.068 251.273C882.614 251.273 876.189 249.848 870.795 247C865.432 244.121 861.295 240 858.386 234.636C855.508 229.242 854.068 222.788 854.068 215.273C854.068 208.061 855.523 201.758 858.432 196.364C861.341 190.97 865.447 186.773 870.75 183.773C876.053 180.773 882.311 179.273 889.523 179.273C894.795 179.273 899.568 180.091 903.841 181.727C908.114 183.364 911.765 185.742 914.795 188.864C917.826 191.955 920.159 195.712 921.795 200.136C923.432 204.561 924.25 209.545 924.25 215.091V220.909H861.886V207.091H901.159C901.129 205.091 900.614 203.333 899.614 201.818C898.644 200.273 897.326 199.076 895.659 198.227C894.023 197.348 892.159 196.909 890.068 196.909C888.038 196.909 886.174 197.348 884.477 198.227C882.78 199.076 881.417 200.258 880.386 201.773C879.386 203.288 878.856 205.061 878.795 207.091V222C878.795 224.242 879.265 226.242 880.205 228C881.144 229.758 882.492 231.136 884.25 232.136C886.008 233.136 888.129 233.636 890.614 233.636C892.341 233.636 893.917 233.394 895.341 232.909C896.795 232.424 898.038 231.727 899.068 230.818C900.098 229.879 900.856 228.758 901.341 227.455H924.25C923.462 232.303 921.598 236.515 918.659 240.091C915.72 243.636 911.826 246.394 906.977 248.364C902.159 250.303 896.523 251.273 890.068 251.273Z" fill="white"/>
</svg>
