<svg width="251" height="200" viewBox="0 0 251 200" fill="none" xmlns="http://www.w3.org/2000/svg">
<path d="M122.313 132.921C146.941 132.921 166.906 113.016 166.906 88.4606C166.906 63.9057 146.941 44 122.313 44C97.6845 44 77.7192 63.9057 77.7192 88.4606C77.7192 113.016 97.6845 132.921 122.313 132.921Z" fill="#15171C" stroke="#7F1D1D" stroke-width="2.5"/>
<path fill-rule="evenodd" clip-rule="evenodd" d="M115.168 122.959C117.509 123.39 119.891 123.614 122.313 123.631C141.795 123.631 157.589 107.885 157.589 88.4606C157.589 69.0366 141.795 53.2903 122.313 53.2903C117.308 53.2903 112.547 54.3294 108.235 56.203C100.74 59.4589 94.6007 65.2348 90.8926 72.4573C88.428 77.2578 87.0376 82.6973 87.0376 88.4606C87.0376 93.6897 88.1822 98.6523 90.2352 103.113C91.7009 106.297 93.6297 109.226 95.9355 111.813" fill="#232429"/>
<path d="M115.168 122.959C117.509 123.39 119.891 123.614 122.313 123.631C141.795 123.631 157.589 107.885 157.589 88.4606C157.589 69.0366 141.795 53.2903 122.313 53.2903C117.308 53.2903 112.547 54.3294 108.235 56.203C100.74 59.4589 94.6007 65.2348 90.8926 72.4573C88.428 77.2578 87.0376 82.6973 87.0376 88.4606C87.0376 93.6897 88.1822 98.6523 90.2352 103.113C91.7009 106.297 93.6297 109.226 95.9355 111.813" stroke="#7F1D1D" stroke-width="2.5" stroke-linecap="round"/>
<path d="M100.079 115.767C102.939 118.084 106.169 119.964 109.668 121.304" stroke="#7F1D1D" stroke-width="2.5" stroke-linecap="round"/>
<path d="M158.92 123.631L166.907 131.594" stroke="#7F1D1D" stroke-width="2.5"/>
<path fill-rule="evenodd" clip-rule="evenodd" d="M165.616 130.307C163.097 132.819 163.097 136.892 165.616 139.404L180.372 154.116C182.892 156.628 186.977 156.628 189.496 154.116C192.016 151.604 192.016 147.531 189.496 145.019L174.74 130.307C172.221 127.795 168.136 127.795 165.616 130.307Z" fill="#414455" stroke="#7F1D1D" stroke-width="2.5"/>
<path d="M172.231 132.921L186.874 147.52" stroke="#232429" stroke-width="2.5" stroke-linecap="round"/>
<path fill-rule="evenodd" clip-rule="evenodd" d="M113.661 73.1981C113.661 88.5907 126.176 101.069 141.615 101.069C144.648 101.069 147.568 100.587 150.302 99.6968C145.839 110.74 134.989 118.536 122.313 118.536C105.654 118.536 92.1484 105.071 92.1484 88.4607C92.1484 73.4098 103.237 60.9412 117.714 58.7332C115.142 62.9513 113.661 67.9022 113.661 73.1981Z" fill="#414455"/>
<path d="M122.978 63.9078C121.283 63.9078 119.627 64.0741 118.026 64.3911M113.187 65.8669C104.081 69.6822 97.6865 78.6587 97.6865 89.1243" stroke="#FFD9C7" stroke-width="2.5" stroke-linecap="round"/>
<path d="M193.763 88.8288H182.88M202.182 78.5068H179.318H202.182ZM211.5 78.5068H208.543H211.5Z" stroke="#FFD9C7" stroke-width="2.5" stroke-linecap="round" stroke-linejoin="round"/>
<path d="M73.9597 118.027H63.0765M67.7355 106.377H44.872H67.7355ZM37.119 106.377H31.5H37.119Z" stroke="#FFD9C7" stroke-width="2.5" stroke-linecap="round" stroke-linejoin="round"/>
</svg>
