<!-- <svg xmlns="http://www.w3.org/2000/svg" width="24" height="24" viewBox="0 0 24 24" fill="none">
  <path opacity="0.4" d="M20.83 8.01L14.28 2.77C13 1.75 11 1.74 9.72996 2.76L3.17996 8.01C2.23996 8.76 1.66996 10.26 1.86996 11.44L3.12996 18.98C3.41996 20.67 4.98996 22 6.69996 22H17.3C18.99 22 20.59 20.64 20.88 18.97L22.14 11.43C22.32 10.26 21.75 8.76 20.83 8.01ZM12.75 18C12.75 18.41 12.41 18.75 12 18.75C11.59 18.75 11.25 18.41 11.25 18V15C11.25 14.59 11.59 14.25 12 14.25C12.41 14.25 12.75 14.59 12.75 15V18Z" fill="white"/>
</svg> -->

<svg width="24" height="24" viewBox="0 0 19 19" fill="none" xmlns="http://www.w3.org/2000/svg">
<g clip-path="url(#clip0_6_17)">
<path d="M7.825 0.120033C7.73443 0.0425682 7.61918 0 7.5 0C7.38082 0 7.26557 0.0425682 7.175 0.120033L0 6.27003V13.5C0 13.8979 0.158035 14.2794 0.43934 14.5607C0.720644 14.842 1.10218 15 1.5 15H5.5C5.63261 15 5.75979 14.9474 5.85355 14.8536C5.94732 14.7598 6 14.6326 6 14.5V11.5C6 11.1022 6.15804 10.7207 6.43934 10.4394C6.72064 10.1581 7.10218 10 7.5 10C7.89782 10 8.27936 10.1581 8.56066 10.4394C8.84196 10.7207 9 11.1022 9 11.5V14.5C9 14.6326 9.05268 14.7598 9.14645 14.8536C9.24021 14.9474 9.36739 15 9.5 15H13.5C13.8978 15 14.2794 14.842 14.5607 14.5607C14.842 14.2794 15 13.8979 15 13.5V6.27003L7.825 0.120033Z" fill="white" fill-opacity="0.74"/>
</g>
<defs>
<clipPath id="clip0_6_17">
<rect width="15" height="15" fill="white"/>
</clipPath>
</defs>
</svg>