<!-- <svg width="32769" height="30781" viewBox="0 0 32769 30781" fill="none" xmlns="http://www.w3.org/2000/svg">
<path d="M16384 2857.29C12867.7 2857.29 9521.88 4258.23 6905.37 6594.58C6901.89 6597.69 6902.79 6603.37 6907.07 6605.24L7951.83 7062.62C7954.09 7063.6 7956.71 7063.21 7958.58 7061.61C10448.6 4929.84 13476.9 3641.64 16384 3641.64C19291.6 3641.64 22320.9 4929 24811.3 7060.71C24813.2 7062.31 24815.8 7062.71 24818.1 7061.72L25861 6605.24C25865.3 6603.37 25866.2 6597.69 25862.7 6594.58C23246.1 4258.23 19900.3 2857.29 16384 2857.29ZM6091.39 7375.84C3465.71 10084.4 1743.59 13807.1 1612.69 17977.5C1612.57 17981.1 1615.48 17984.1 1619.1 17984.1H2503.7C2507.15 17984.1 2509.99 17981.4 2510.11 17977.9C2654.17 14022.4 4452.02 10515.2 6989.38 7960.86C7031.63 7918.28 7074.63 7876.57 7117.4 7834.56C7120.64 7831.38 7119.63 7825.93 7115.48 7824.11L6091.41 7375.93C6091.37 7375.92 6091.36 7375.87 6091.39 7375.84V7375.84ZM26676.6 7375.84C26676.6 7375.84 26676.6 7375.85 26676.6 7375.85L25654.4 7823.33C25650.3 7825.15 25649.3 7830.59 25652.5 7833.77C25694.6 7875.1 25737 7916.1 25778.6 7958C28316.1 10511.6 30114 14018.9 30258 17977.9C30258.1 17981.4 30260.9 17984.1 30264.4 17984.1H31149C31152.6 17984.1 31155.5 17981.1 31155.4 17977.5C31024.5 13807.1 29302.4 10084.4 26676.7 7375.87C26676.7 7375.85 26676.7 7375.84 26676.6 7375.84V7375.84ZM8194.69 14723.4C7971.65 14722.7 7747.97 14783.8 7744 14914.8V25659.6C7744 25883.7 8640 25883.7 8640 25659.6V14902.7C8640 14786.5 8417.73 14724 8194.56 14723.4H8194.69ZM24573.4 14723.4C24350.2 14724 24127.9 14786.5 24127.9 14902.7V25659.6C24127.9 25883.7 25023.9 25883.7 25023.9 25659.6V14914.8C25020.1 14783.8 24796.3 14722.8 24573.4 14723.4ZM6592 15455.2C6592 15451.3 6588.52 15448.3 6584.67 15448.8C5588.99 15584.3 4949.61 16074.9 4471.49 16828.3C3905.41 17720.5 3648 18992.6 3648 20281.2C3648 21569.7 3905.41 22841.9 4471.49 23734C4949.68 24487.4 5588.99 24978 6584.67 25113.5C6588.52 25114 6592 25111 6592 25107.1V15455.2ZM26183.3 15448.8C26179.5 15448.3 26176 15451.3 26176 15455.2V25107.1C26176 25111 26179.5 25114 26183.3 25113.5C27179 24978 27818.4 24487.4 28296.5 23734C28862.6 22841.9 29120 21569.7 29120 20281.2C29120 18992.6 28862.6 17720.4 28296.5 16828.3C27818.3 16074.9 27179 15584.3 26183.3 15448.8ZM1606.42 18992.6C1602.87 18992.6 1600 18995.4 1600 18999V21563.3C1600 21566.9 1602.87 21569.7 1606.42 21569.7H2489.58C2493.13 21569.7 2496 21566.9 2496 21563.3V18999C2496 18995.4 2493.13 18992.6 2489.58 18992.6H1606.42ZM30278.4 18992.6C30274.9 18992.6 30272 18995.4 30272 18999V21563.3C30272 21566.9 30274.9 21569.7 30278.4 21569.7H31161.6C31165.1 21569.7 31168 21566.9 31168 21563.3V18999C31168 18995.4 31165.1 18992.6 31161.6 18992.6H30278.4Z" fill="#B91E1E" stroke="#B91E1E" stroke-width="5"/>
<path d="M13513.7 8241.12C14275.3 7388.51 15308.2 6909.52 16385.2 6909.52C17462.2 6909.52 18495.1 7388.51 19256.7 8241.12C20018.2 9093.63 20446 10249.9 20446.1 11455.5H18415.9C18281.1 11455.5 18151.9 11515.4 18056.6 11622.1C17961.3 11728.8 17907.8 11873.5 17907.8 12024.3C17907.8 12175.2 17961.3 12319.9 18056.6 12426.5C18151.9 12533.2 18281.1 12593.2 18415.9 12593.2H20446.1V13728.9H18415.9C18281.1 13728.9 18151.9 13788.9 18056.6 13895.6C17961.3 14002.3 17907.8 14146.9 17907.8 14297.8C17907.8 14448.6 17961.3 14593.3 18056.6 14700C18151.9 14806.7 18281.1 14866.6 18415.9 14866.6H20446.1V16002.4H18415.9C18281.1 16002.4 18151.9 16062.4 18056.6 16169C17961.3 16275.7 17907.8 16420.4 17907.8 16571.3C17907.8 16722.1 17961.3 16866.8 18056.6 16973.5C18151.9 17080.2 18281.1 17140.1 18415.9 17140.1H20446.1C20446 18345.7 20018.2 19502 19256.7 20354.5C18495.1 21207.1 17462.2 21686.1 16385.2 21686.1C15308.2 21686.1 14275.3 21207.1 13513.7 20354.5C12752.2 19502 12324.4 18345.7 12324.2 17140.1H14354.5C14489.3 17140.1 14618.5 17080.2 14713.8 16973.5C14809.1 16866.8 14862.6 16722.1 14862.6 16571.3C14862.6 16420.4 14809.1 16275.7 14713.8 16169C14618.5 16062.4 14489.3 16002.4 14354.5 16002.4H12324.2V14866.6H14354.5C14489.3 14866.6 14618.5 14806.7 14713.8 14700C14809.1 14593.3 14862.6 14448.6 14862.6 14297.8C14862.6 14146.9 14809.1 14002.3 14713.8 13895.6C14618.5 13788.9 14489.3 13728.9 14354.5 13728.9H12324.2V12593.2H14354.5C14489.3 12593.2 14618.5 12533.2 14713.8 12426.5C14809.1 12319.9 14862.6 12175.2 14862.6 12024.3C14862.6 11873.5 14809.1 11728.8 14713.8 11622.1C14618.5 11515.4 14489.3 11455.5 14354.5 11455.5H12324.2C12324.4 10249.9 12752.2 9093.63 13513.7 8241.12Z" fill="#B91E1E" stroke="#B91E1E" stroke-width="3"/>
<path fill-rule="evenodd" clip-rule="evenodd" d="M15877.5 26233.5V23391.7H16892.9V26233.5H15877.5ZM12323.8 26801.8C12323.8 26651.1 12377.3 26506.5 12472.5 26399.9C12567.7 26293.4 12696.8 26233.5 12831.4 26233.5H19938.9C20073.6 26233.5 20202.7 26293.4 20297.9 26399.9C20393.1 26506.5 20446.6 26651.1 20446.6 26801.8C20446.6 26952.6 20393.1 27097.2 20297.9 27203.7C20202.7 27310.3 20073.6 27370.2 19938.9 27370.2H12831.4C12696.8 27370.2 12567.7 27310.3 12472.5 27203.7C12377.3 27097.2 12323.8 26952.6 12323.8 26801.8Z" fill="#B91E1E"/>
<path fill-rule="evenodd" clip-rule="evenodd" d="M10523.5 19082.3C10648.9 19027.7 10788.5 19031 10911.7 19091.6C11034.8 19152.1 11131.5 19264.9 11180.5 19405.1C11580.8 20557.5 12277.3 21551.1 13182.1 22260.3C14086.8 22969.6 15159 23362.5 16263.2 23389.5C17367.4 23416.5 18453.9 23076.4 19385.4 22412.1C20316.9 21747.8 21051.6 20789.2 21496.5 19657.5C21523.4 19589.1 21562 19527.3 21610.2 19475.7C21658.4 19424 21715.2 19383.5 21777.4 19356.4C21839.6 19329.4 21905.9 19316.3 21972.6 19317.9C22039.3 19319.5 22105.1 19335.8 22166.1 19365.9C22227.2 19396 22282.4 19439.2 22328.5 19493.2C22374.7 19547.2 22410.9 19610.8 22435 19680.4C22459.2 19750 22470.9 19824.2 22469.5 19898.9C22468 19973.6 22453.4 20047.2 22426.6 20115.6C21900.9 21453.3 21032.7 22586.5 19931.8 23371.8C18830.8 24157.1 17546.6 24559.3 16241.5 24527.4C14936.4 24495.5 13669 24031 12599.7 23192.7C11530.4 22354.4 10707.2 21179.9 10234.2 19817.8C10185.4 19677.3 10188.6 19520.9 10242.8 19383C10297.1 19245 10398.1 19136.9 10523.5 19082.3Z" fill="#B91E1E"/>
</svg> -->


<svg width="23" height="27" viewBox="0 0 32769 30781" fill="none" xmlns="http://www.w3.org/2000/svg">
<path d="M16384 2857.29C12867.7 2857.29 9521.88 4258.23 6905.37 6594.58C6901.89 6597.69 6902.79 6603.37 6907.07 6605.24L7951.83 7062.62C7954.09 7063.6 7956.71 7063.21 7958.58 7061.61C10448.6 4929.84 13476.9 3641.64 16384 3641.64C19291.6 3641.64 22320.9 4929 24811.3 7060.71C24813.2 7062.31 24815.8 7062.71 24818.1 7061.72L25861 6605.24C25865.3 6603.37 25866.2 6597.69 25862.7 6594.58C23246.1 4258.23 19900.3 2857.29 16384 2857.29ZM6091.39 7375.84C3465.71 10084.4 1743.59 13807.1 1612.69 17977.5C1612.57 17981.1 1615.48 17984.1 1619.1 17984.1H2503.7C2507.15 17984.1 2509.99 17981.4 2510.11 17977.9C2654.17 14022.4 4452.02 10515.2 6989.38 7960.86C7031.63 7918.28 7074.63 7876.57 7117.4 7834.56C7120.64 7831.38 7119.63 7825.93 7115.48 7824.11L6091.41 7375.93C6091.37 7375.92 6091.36 7375.87 6091.39 7375.84V7375.84ZM26676.6 7375.84C26676.6 7375.84 26676.6 7375.85 26676.6 7375.85L25654.4 7823.33C25650.3 7825.15 25649.3 7830.59 25652.5 7833.77C25694.6 7875.1 25737 7916.1 25778.6 7958C28316.1 10511.6 30114 14018.9 30258 17977.9C30258.1 17981.4 30260.9 17984.1 30264.4 17984.1H31149C31152.6 17984.1 31155.5 17981.1 31155.4 17977.5C31024.5 13807.1 29302.4 10084.4 26676.7 7375.87C26676.7 7375.85 26676.7 7375.84 26676.6 7375.84V7375.84ZM8194.69 14723.4C7971.65 14722.7 7747.97 14783.8 7744 14914.8V25659.6C7744 25883.7 8640 25883.7 8640 25659.6V14902.7C8640 14786.5 8417.73 14724 8194.56 14723.4H8194.69ZM24573.4 14723.4C24350.2 14724 24127.9 14786.5 24127.9 14902.7V25659.6C24127.9 25883.7 25023.9 25883.7 25023.9 25659.6V14914.8C25020.1 14783.8 24796.3 14722.8 24573.4 14723.4ZM6592 15455.2C6592 15451.3 6588.52 15448.3 6584.67 15448.8C5588.99 15584.3 4949.61 16074.9 4471.49 16828.3C3905.41 17720.5 3648 18992.6 3648 20281.2C3648 21569.7 3905.41 22841.9 4471.49 23734C4949.68 24487.4 5588.99 24978 6584.67 25113.5C6588.52 25114 6592 25111 6592 25107.1V15455.2ZM26183.3 15448.8C26179.5 15448.3 26176 15451.3 26176 15455.2V25107.1C26176 25111 26179.5 25114 26183.3 25113.5C27179 24978 27818.4 24487.4 28296.5 23734C28862.6 22841.9 29120 21569.7 29120 20281.2C29120 18992.6 28862.6 17720.4 28296.5 16828.3C27818.3 16074.9 27179 15584.3 26183.3 15448.8ZM1606.42 18992.6C1602.87 18992.6 1600 18995.4 1600 18999V21563.3C1600 21566.9 1602.87 21569.7 1606.42 21569.7H2489.58C2493.13 21569.7 2496 21566.9 2496 21563.3V18999C2496 18995.4 2493.13 18992.6 2489.58 18992.6H1606.42ZM30278.4 18992.6C30274.9 18992.6 30272 18995.4 30272 18999V21563.3C30272 21566.9 30274.9 21569.7 30278.4 21569.7H31161.6C31165.1 21569.7 31168 21566.9 31168 21563.3V18999C31168 18995.4 31165.1 18992.6 31161.6 18992.6H30278.4Z" fill="#B91E1E" stroke="#B91E1E" stroke-width="5"/>
<path d="M13513.7 8241.12C14275.3 7388.51 15308.2 6909.52 16385.2 6909.52C17462.2 6909.52 18495.1 7388.51 19256.7 8241.12C20018.2 9093.63 20446 10249.9 20446.1 11455.5H18415.9C18281.1 11455.5 18151.9 11515.4 18056.6 11622.1C17961.3 11728.8 17907.8 11873.5 17907.8 12024.3C17907.8 12175.2 17961.3 12319.9 18056.6 12426.5C18151.9 12533.2 18281.1 12593.2 18415.9 12593.2H20446.1V13728.9H18415.9C18281.1 13728.9 18151.9 13788.9 18056.6 13895.6C17961.3 14002.3 17907.8 14146.9 17907.8 14297.8C17907.8 14448.6 17961.3 14593.3 18056.6 14700C18151.9 14806.7 18281.1 14866.6 18415.9 14866.6H20446.1V16002.4H18415.9C18281.1 16002.4 18151.9 16062.4 18056.6 16169C17961.3 16275.7 17907.8 16420.4 17907.8 16571.3C17907.8 16722.1 17961.3 16866.8 18056.6 16973.5C18151.9 17080.2 18281.1 17140.1 18415.9 17140.1H20446.1C20446 18345.7 20018.2 19502 19256.7 20354.5C18495.1 21207.1 17462.2 21686.1 16385.2 21686.1C15308.2 21686.1 14275.3 21207.1 13513.7 20354.5C12752.2 19502 12324.4 18345.7 12324.2 17140.1H14354.5C14489.3 17140.1 14618.5 17080.2 14713.8 16973.5C14809.1 16866.8 14862.6 16722.1 14862.6 16571.3C14862.6 16420.4 14809.1 16275.7 14713.8 16169C14618.5 16062.4 14489.3 16002.4 14354.5 16002.4H12324.2V14866.6H14354.5C14489.3 14866.6 14618.5 14806.7 14713.8 14700C14809.1 14593.3 14862.6 14448.6 14862.6 14297.8C14862.6 14146.9 14809.1 14002.3 14713.8 13895.6C14618.5 13788.9 14489.3 13728.9 14354.5 13728.9H12324.2V12593.2H14354.5C14489.3 12593.2 14618.5 12533.2 14713.8 12426.5C14809.1 12319.9 14862.6 12175.2 14862.6 12024.3C14862.6 11873.5 14809.1 11728.8 14713.8 11622.1C14618.5 11515.4 14489.3 11455.5 14354.5 11455.5H12324.2C12324.4 10249.9 12752.2 9093.63 13513.7 8241.12Z" fill="#B91E1E" stroke="#B91E1E" stroke-width="3"/>
<path fill-rule="evenodd" clip-rule="evenodd" d="M15877.5 26233.5V23391.7H16892.9V26233.5H15877.5ZM12323.8 26801.8C12323.8 26651.1 12377.3 26506.5 12472.5 26399.9C12567.7 26293.4 12696.8 26233.5 12831.4 26233.5H19938.9C20073.6 26233.5 20202.7 26293.4 20297.9 26399.9C20393.1 26506.5 20446.6 26651.1 20446.6 26801.8C20446.6 26952.6 20393.1 27097.2 20297.9 27203.7C20202.7 27310.3 20073.6 27370.2 19938.9 27370.2H12831.4C12696.8 27370.2 12567.7 27310.3 12472.5 27203.7C12377.3 27097.2 12323.8 26952.6 12323.8 26801.8Z" fill="#B91E1E"/>
<path fill-rule="evenodd" clip-rule="evenodd" d="M10523.5 19082.3C10648.9 19027.7 10788.5 19031 10911.7 19091.6C11034.8 19152.1 11131.5 19264.9 11180.5 19405.1C11580.8 20557.5 12277.3 21551.1 13182.1 22260.3C14086.8 22969.6 15159 23362.5 16263.2 23389.5C17367.4 23416.5 18453.9 23076.4 19385.4 22412.1C20316.9 21747.8 21051.6 20789.2 21496.5 19657.5C21523.4 19589.1 21562 19527.3 21610.2 19475.7C21658.4 19424 21715.2 19383.5 21777.4 19356.4C21839.6 19329.4 21905.9 19316.3 21972.6 19317.9C22039.3 19319.5 22105.1 19335.8 22166.1 19365.9C22227.2 19396 22282.4 19439.2 22328.5 19493.2C22374.7 19547.2 22410.9 19610.8 22435 19680.4C22459.2 19750 22470.9 19824.2 22469.5 19898.9C22468 19973.6 22453.4 20047.2 22426.6 20115.6C21900.9 21453.3 21032.7 22586.5 19931.8 23371.8C18830.8 24157.1 17546.6 24559.3 16241.5 24527.4C14936.4 24495.5 13669 24031 12599.7 23192.7C11530.4 22354.4 10707.2 21179.9 10234.2 19817.8C10185.4 19677.3 10188.6 19520.9 10242.8 19383C10297.1 19245 10398.1 19136.9 10523.5 19082.3Z" fill="#B91E1E"/>
</svg>