<svg width="24" height="24" viewBox="0 0 24 24" fill="none" xmlns="http://www.w3.org/2000/svg">
<path d="M8.60986 4.8C8.50151 4.90045 8.41401 5.02127 8.35235 5.15554C8.2907 5.28982 8.25609 5.43492 8.25052 5.58257C8.24495 5.73022 8.26852 5.87752 8.31988 6.01606C8.37124 6.1546 8.44939 6.28167 8.54986 6.39L13.8404 12L8.54986 17.61C8.4494 17.7183 8.37126 17.8454 8.31991 17.9839C8.26856 18.1225 8.24499 18.2698 8.25056 18.4174C8.25613 18.5651 8.29073 18.7102 8.35238 18.8444C8.41403 18.9787 8.50152 19.0995 8.60986 19.2C8.7182 19.3005 8.84527 19.3786 8.98381 19.43C9.12235 19.4813 9.26964 19.5049 9.41729 19.4993C9.56493 19.4937 9.71004 19.4591 9.84431 19.3975C9.97859 19.3358 10.0994 19.2483 10.1999 19.14L16.1999 12.765C16.3928 12.557 16.5 12.2837 16.5 12C16.5 11.7163 16.3928 11.443 16.1999 11.235L10.1999 4.86C10.0994 4.75165 9.97859 4.66414 9.84432 4.60249C9.71005 4.54083 9.56494 4.50623 9.41729 4.50066C9.26964 4.49509 9.12234 4.51865 8.9838 4.57002C8.84526 4.62138 8.7182 4.69953 8.60986 4.8Z" fill="#7F1D1D"/>
</svg>
